<?xml version="1.0" encoding="UTF-8"?>
<svg height="1365.3" version="1.1" viewBox="0 0 1365.3333 1365.3333" width="1365.3"
    xmlns="http://www.w3.org/2000/svg">
    <path d="m3.9e-6 682.67v-682.67h1365.3v1365.3h-1365.3z" fill="#f7f8fa" stroke-width="1.3333" />
    <path
        d="m3.9e-6 682.67v-682.67h1365.3v1365.3h-1365.3zm828.67 358.56c20.667-9.6759 34.545-38.294 30.147-62.164-1.99-10.8-6.597-20.098-13.897-28.048-10.652-11.6-92.952-71.64-157.67-115.03-20.851-13.978-37.911-26.084-37.911-26.903 0-2.7235 17.79-32.72 36.457-61.471 11.384-17.534 51.936-74.424 66.629-93.473l2.9774-3.8601 20.635 3.5822c27.858 4.8362 68.965 15.071 97.302 24.226 37.857 12.231 40.903 12.969 50.621 12.268 37.348-2.6923 55.798-53.092 31.535-86.145-2.6394-3.5956-8.1177-8.8232-12.174-11.617-4.0563-2.7937-7.1625-5.7169-6.9028-6.4961 0.25974-0.7792 10.623-6.7417 23.03-13.25 30.875-16.196 74.106-40.989 98.377-56.42 44.904-28.548 70.638-51.07 79.899-69.927 8.1851-16.665 10.744-29.333 9.9209-49.119-0.742-17.846-3.0013-26.924-10.288-41.339-11.92-23.58-33.22-41.638-59.35-50.316-9.5529-3.1727-12.686-3.5457-30-3.5725-17.71-0.0273-20.229 0.28012-30 3.6625-20.471 7.0862-36.668 18.501-49.447 34.849-8.2871 10.601-11.988 19.177-17.265 40.001-9.4812 37.418-14.445 84.595-17.947 170.56-0.74435 18.276-1.6519 33.527-2.0168 33.892-0.36489 0.36491-8.0121-1.814-16.994-4.8421-30.663-10.337-65.79-19.263-105.66-26.849-24.792-4.7166-74.854-12.096-82.061-12.096-3.1224 0-8.829-1.9574-15.445-5.2979-17.612-8.892-33.31-11.496-53.958-8.951l-8.7978 1.0845-7.7438-8.0619c-14.131-14.712-33.201-26.004-57.327-33.946-9.0086-2.9657-11.185-4.2766-14-8.4337-18.879-27.878-51.498-43.091-83.667-39.021-21.639 2.7376-37.58 10.528-53.08 25.941-11.041 10.979-11.562 11.746-50.658 74.686-39.433 63.481-38.605 61.55-38.573 90 0.0197 17.569 0.3457 20.226 3.5723 29.113 5.1754 14.255 11.123 23.521 22.451 34.979 16.397 16.585 37.197 25.293 60.622 25.381 13.424 0.0501 20.452-1.2425 33.538-6.1681 8.551-3.2186 9.416-3.2962 19.51-1.751 6.7751 1.0371 10.826 2.3041 11.298 3.5334 0.40449 1.0541-2.9466 9.1908-7.4468 18.081-14.722 29.086-17.931 41.155-17.412 65.498 0.21946 10.294-0.21372 17.022-1.2146 18.866-0.85567 1.5761-6.217 7.1648-11.914 12.419-11.416 10.529-23.762 17.367-37.657 20.855-11.466 2.8787-35.201 1.9385-50.034-1.9819-14.015-3.7041-37.172-15.05-58.667-28.746-27.53-17.54-27.217-17.412-42.667-17.412-12.284 0-13.895 0.31097-20.464 3.95-24.734 13.7-35.652 47.292-23.791 73.199 6.1458 13.424 16.751 22.147 49.602 40.797 45.848 26.029 87.337 38.637 127.32 38.691 26.858 0.0365 49.602-5.4916 76.667-18.634 24.791-12.039 47.975-29.413 65.768-49.286 8.1795-9.1358 8.5689-9.3834 14.759-9.3834 5.869 0 8.3987 1.3081 32.915 17.021 54.253 34.771 112.91 75.495 164.23 114.03 30.279 22.733 35.336 26.151 44.295 29.939 9.212 3.8946 20.228 3.4915 30.032-1.0988zm-307.98-381.2c-1.0631-1.7201-1.0581-1.7287 23.968-41.959 28.32-45.525 33.424-54.553 36.029-63.736 1.7511-6.173 2.7141-7.6667 4.9429-7.6667 3.888 0 14.376 8.9077 14.376 12.21 0 1.4839-2.587 5.7938-5.7488 9.5774-8.2646 9.8899-32.731 43.448-49.538 67.946-7.9489 11.587-15.695 21.937-17.213 23-3.2098 2.2482-5.6751 2.4753-6.8169 0.6278zm516.42-181.32c-32.461-5.8664-56.42-27.463-64.383-58.036-2.6302-10.098-2.6398-28.546-0.02-38.604 6.9872-26.826 29.162-48.789 56.629-56.089 9.4865-2.5212 28.035-2.5201 37.719 3e-3 29.598 7.7094 52.462 32.373 57.779 62.327 6.963 39.23-17.974 78.383-56.165 88.182-10.471 2.6868-23.787 3.6227-31.559 2.2181zm47.44-20.146c1.8985-2.2562 3.4519-5.4921 3.4519-7.1907 0-1.6986 0.9-3.4337 2-3.8558 1.1-0.42211 2-2.3074 2-4.1896 0-3.0089-0.322-3.2498-2.6667-1.9949-1.4667 0.78494-2.6667 2.2062-2.6667 3.1584 0 0.95219-2.4 4.3309-5.3333 7.5083s-5.3333 6.8772-5.3333 8.2218c0 3.8466 4.6804 2.939 8.5481-1.6575zm-5.8084-23.349 2.9571-4.7848 8.8183 0.3805c16.348 0.7054 21.486 0.11266 21.477-2.4775-0.01-2.4357-32.546-60.108-36.855-65.324-2.3491-2.844-4.3357-3.1202-40.447-5.6239-25.569-1.7728-38.416-2.193-39.323-1.2863-0.90675 0.90675 0.71896 5.3971 4.9761 13.744 3.4776 6.8187 6.3228 13.096 6.3228 13.949s-1.1574 3.7105-2.5721 6.35c-3.5425 6.6095-2.4597 8.7211 3.9468 7.6967 4.3723-0.69916 6.8568 0.11506 17.527 5.7436 24.923 13.148 43.765 27.44 43.765 33.198 0 5.2848 5.7659 4.3256 9.4064-1.5648zm-29.204-47.455c-5.389-2.9936-13.671-6.7961-18.404-8.45-9.8536-3.4431-11.644-4.6433-6.9286-4.6433 10.929 0 37.211 12.556 35.654 17.034-0.3197 0.91911-4.3272-0.61088-10.321-3.9403zm-275.54 130.25c29.16-6.0845 54.118-28.43 64.219-57.496 3.205-9.2227 3.649-12.471 3.6228-26.511-0.0257-13.768-0.53423-17.528-3.6456-26.953-7.1459-21.646-22.96-40.015-42.863-49.785-14.042-6.8931-23.959-9.2669-38.613-9.243-24.619 0.0403-42.938 7.5333-60.184 24.617-19.339 19.158-26.788 38.218-25.535 65.336 0.51286 11.093 1.5211 17.079 4.1147 24.427 11.898 33.711 44.62 57.154 80.218 57.47 5.1333 0.0456 13.533-0.79352 18.667-1.8646z"
        fill="#273492" stroke-width="1.3333" />
</svg>
